<svg width="1024" height="1024" viewBox="0 0 1024 1024" fill="none" xmlns="http://www.w3.org/2000/svg">
<rect width="1024" height="1024" rx="200" fill="white"/>
<rect width="1024" height="1024" fill="#FEFEFE"/>
<path d="M595 743C677.843 743 745 675.843 745 593H445C445 675.843 512.157 743 595 743Z" fill="url(#paint0_linear)"/>
<path d="M595 743C677.843 743 745 675.843 745 593H445C445 675.843 512.157 743 595 743ZM595 743V798.5L697 703" stroke="url(#paint1_linear)" stroke-width="50"/>
<path d="M665 538C665 477.249 615.751 428 555 428C494.249 428 445 477.249 445 538" stroke="#53A8CB" stroke-width="50"/>
<path d="M405.703 307.825C402.889 292.381 414.695 278 430.393 278C441.886 278 451.871 285.894 454.361 297.115C458.59 316.174 464.82 345.737 468 368C474.244 411.706 473.068 472.462 471.579 508.264C470.881 525.045 456.983 538 440.187 538H420C420 538 423.848 458.622 420 408C417.63 376.827 410.736 335.443 405.703 307.825Z" fill="#53A8CB"/>
<path d="M496.32 230.313C493.239 214.725 505.094 200 520.984 200C532.279 200 542.143 207.614 544.804 218.591C549.038 236.059 555.097 262.427 558.222 282.385C564.737 324 563.199 382.502 561.631 414.617C560.986 427.833 550.015 438 536.783 438C522.262 438 510.68 425.839 511.121 411.325C511.894 385.939 512.439 347.493 510.065 319C507.78 291.577 501.303 255.52 496.32 230.313Z" fill="#53A8CB"/>
<path d="M654.461 309.591C658.434 293.746 646.607 278 630.272 278C619.84 278 610.557 284.61 607.401 294.553C603.233 307.689 597.712 326.135 594.778 340.308C588.7 369.67 589.631 410.15 591.056 435.169C591.797 448.169 602.672 458 615.693 458C630.419 458 642.098 445.524 641.624 430.806C641.019 412.011 640.835 387.061 642.935 368C644.892 350.234 649.925 327.677 654.461 309.591Z" fill="#53A8CB"/>
<path d="M290.057 488.186C271.865 480.321 264.006 458.286 273.936 441.133L276.325 437.007C285.011 422.005 304.074 416.63 318.956 425.521C328.626 431.299 339.147 437.889 347.335 443.796C384.768 470.802 398.143 498.847 398.318 499.216C398.323 499.227 398.322 499.225 398.328 499.237L402.119 507.259C409.075 521.981 402.951 540.504 386.76 538.776C378.667 537.912 369.557 534.649 360.535 526.746C345.611 513.672 314.623 498.806 290.057 488.186Z" fill="#53A8CB"/>
<path d="M716.392 397.629C718.324 386.171 728.339 378 739.959 378C755.468 378 767.142 392.243 764.791 407.572C762.362 423.403 760 442.728 760 458C760 489.422 770 538 770 538H720C720 538 710 489.422 710 458C710 439.338 713.527 414.624 716.392 397.629Z" fill="#53A8CB"/>
<path d="M655 569H675V584C675 589.523 670.523 594 665 594C659.477 594 655 589.523 655 584V569Z" stroke="white" stroke-width="35"/>
<rect x="652.5" y="519.5" width="25" height="77" rx="12.5" stroke="#53A8CB" stroke-width="25"/>
<circle cx="758" cy="337" r="25" fill="#53A8CB"/>
<defs>
<linearGradient id="paint0_linear" x1="595" y1="568.5" x2="595" y2="852.5" gradientUnits="userSpaceOnUse">
<stop stop-color="#EC99BA"/>
<stop offset="1" stop-color="#8881B9"/>
</linearGradient>
<linearGradient id="paint1_linear" x1="595" y1="593" x2="595" y2="743" gradientUnits="userSpaceOnUse">
<stop stop-color="#EC99BA"/>
<stop offset="1" stop-color="#8881B9"/>
</linearGradient>
</defs>
</svg>
