<svg width="16" height="28" viewBox="0 0 16 28" fill="none" xmlns="http://www.w3.org/2000/svg">
<path d="M1 11V16C1 19.866 4.13401 23 8 23V23C11.866 23 15 19.866 15 16V11" stroke="white"/>
<rect x="7" y="23" width="2" height="3" fill="white"/>
<rect x="3" y="26" width="10" height="2" fill="white"/>
<path fill-rule="evenodd" clip-rule="evenodd" d="M4.21303 2.70865L11.9956 16.1885C11.9985 16.126 12 16.0632 12 16V4C12 1.79086 10.2091 0 8 0C6.24272 0 4.75012 1.13317 4.21303 2.70865ZM11.0628 18.5729L4 6.33967V16C4 18.2091 5.79086 20 8 20C9.22931 20 10.3291 19.4455 11.0628 18.5729Z" fill="white"/>
<rect x="1.63403" y="1.2417" width="1" height="26" transform="rotate(-30 1.63403 1.2417)" fill="white"/>
</svg>
